#!OML:ASF C:\Vicon Data\Big\jianyuan-12\jianyuan\Session 1\Capture.male.ASF
:FULLY-SPECIFIED
:DEGREES
126
root -10.149229 16.717300 -13.948842 5.259064 -24.761431 6.024015
lowerback -10.805574 1.296404 -3.816166 
upperback 2.107331 2.403384 -1.634408 
thorax 8.236647 1.031180 0.838869 
lowerneck -1.229849 -8.139630 -5.436769 
upperneck 7.064472 -11.287426 8.734977 
head 3.109162 -5.466014 3.092573 
rclavicle 0.000000 0.000000 
rhumerus -32.899945 -25.397035 -80.895656 
rradius 37.408286 
rwrist 33.163218 
rhand -21.871784 -3.989902 
rfingers 0.000000 
rthumb 4.532580 -33.921361 
lclavicle 0.000000 0.000000 
lhumerus -53.442429 44.309150 55.450564 
lradius 25.013943 
lwrist -61.733439 
lhand -9.651702 2.939313 
lfingers 0.000000 
lthumb 16.319007 32.272626 
rfemur 10.826639 3.641601 20.496144 
rtibia 14.569929 
rfoot -18.814941 -0.215631 
rtoes -18.213294 
lfemur -32.288597 -4.010873 -22.827110 
ltibia 22.857099 
lfoot -10.096812 4.468313 
ltoes -12.213530 
127
root -10.164572 16.716867 -13.887859 5.159279 -24.816709 6.181668
lowerback -10.890465 1.260519 -4.032045 
upperback 2.121463 2.390815 -1.630800 
thorax 8.293483 1.013167 0.964106 
lowerneck -1.260785 -8.129550 -5.491792 
upperneck 7.129592 -11.273258 8.705817 
head 3.134088 -5.459330 3.090468 
rclavicle 0.000000 0.000000 
rhumerus -33.002641 -25.515016 -80.716845 
rradius 37.235628 
rwrist 33.409327 
rhand -21.853701 -3.972073 
rfingers 0.000000 
rthumb 4.550038 -33.903156 
lclavicle 0.000000 0.000000 
lhumerus -53.378429 44.333876 55.589434 
lradius 25.028384 
lwrist -61.714484 
lhand -9.779254 3.047249 
lfingers 0.000000 
lthumb 16.196198 32.390656 
rfemur 10.685298 3.471104 20.244900 
rtibia 15.287896 
rfoot -18.660348 -0.081834 
rtoes -18.587718 
lfemur -32.096157 -4.012417 -23.027077 
ltibia 22.881355 
lfoot -9.668095 4.529372 
ltoes -11.409361 
128
root -10.181837 16.718874 -13.826833 5.142081 -24.890964 6.299086
lowerback -11.040849 1.225030 -4.230855 
upperback 2.109492 2.377798 -1.609038 
thorax 8.359887 0.995038 1.100526 
lowerneck -1.293156 -8.098548 -5.546605 
upperneck 7.201200 -11.228889 8.645642 
head 3.157198 -5.438593 3.080591 
rclavicle 0.000000 0.000000 
rhumerus -33.148437 -25.597233 -80.518938 
rradius 37.050909 
rwrist 33.844924 
rhand -21.917209 -4.018794 
rfingers 0.000000 
rthumb 4.488723 -33.951182 
lclavicle 0.000000 0.000000 
lhumerus -53.384235 44.388281 55.652440 
lradius 25.065657 
lwrist -61.688249 
lhand -9.750855 2.922039 
lfingers 0.000000 
lthumb 16.223579 32.263210 
rfemur 10.434276 3.441501 20.076955 
rtibia 16.097518 
rfoot -18.553044 -0.069778 
rtoes -19.153916 
lfemur -31.974731 -4.027549 -23.154022 
ltibia 22.914328 
lfoot -9.281111 4.669513 
ltoes -10.944232 
129
root -10.198625 16.726122 -13.766991 5.067313 -25.016524 6.579057
lowerback -11.141947 1.180088 -4.523100 
upperback 2.057609 2.370295 -1.681350 
thorax 8.355460 0.980176 1.188471 
lowerneck -1.300357 -8.067393 -5.591875 
upperneck 7.316670 -11.194790 8.675475 
head 3.194590 -5.419263 3.095833 
rclavicle 0.000000 0.000000 
rhumerus -33.338273 -25.706409 -80.398728 
rradius 36.883152 
rwrist 34.214429 
rhand -22.004784 -3.913219 
rfingers 0.000000 
rthumb 4.404182 -33.847436 
lclavicle 0.000000 0.000000 
lhumerus -53.414163 44.423749 55.584171 
lradius 25.046701 
lwrist -61.497529 
lhand -9.843122 3.002020 
lfingers 0.000000 
lthumb 16.134729 32.350408 
rfemur 10.080624 3.349808 19.698201 
rtibia 17.003387 
rfoot -18.385986 -0.008955 
rtoes -19.387508 
lfemur -31.839238 -3.917973 -23.492237 
ltibia 22.927621 
lfoot -8.951461 4.797084 
ltoes -10.815963 
130
root -10.214453 16.731359 -13.707359 5.026239 -25.190208 6.766500
lowerback -11.238362 1.172521 -4.719824 
upperback 2.007618 2.397746 -1.739745 
thorax 8.351229 0.986447 1.243764 
lowerneck -1.317894 -8.047167 -5.575945 
upperneck 7.430165 -11.171997 8.641592 
head 3.226994 -5.405833 3.081720 
rclavicle 0.000000 0.000000 
rhumerus -33.498990 -25.832934 -80.286310 
rradius 36.747266 
rwrist 34.306978 
rhand -21.944700 -3.835693 
rfingers 0.000000 
rthumb 4.462206 -33.768688 
lclavicle 0.000000 0.000000 
lhumerus -53.410038 44.427286 55.563320 
lradius 25.068891 
lwrist -61.312233 
lhand -9.864747 3.085651 
lfingers 0.000000 
lthumb 16.113908 32.435744 
rfemur 9.707964 3.259370 19.383423 
rtibia 17.942166 
rfoot -18.174326 0.115963 
rtoes -19.514798 
lfemur -31.705248 -3.813022 -23.722122 
ltibia 22.955062 
lfoot -8.691241 4.977544 
ltoes -10.609762 
